<svg width="34" height="49" viewBox="0 0 34 50" xmlns="http://www.w3.org/2000/svg"><title>logo</title><g fill="#CFE7DE" fill-rule="evenodd"><path d="M13.29.423C4.16 2.533-1.508 11.763.606 21.036c.01.15.084.29.203.385l15.528 12.167c.307-.233.624-.453.954-.652L1.507 20.565c-.022-.022-.045-.04-.07-.06.12-1.71 1.355-3.222 3.14-3.634 1.6-.368 3.18.27 4.11 1.474.014.018.032.03.05.045l9.35 14.117c.336-.165.687-.318 1.04-.447L9.6 17.683c-.008-.01-.016-.022-.026-.032.445-1.255 1.51-2.28 2.92-2.607 1.47-.34 2.92.16 3.87 1.172l3.597 15.578c.157-.042.33-.08.49-.113.2-.05.393-.1.595-.137L17.45 15.965c.41-1.325 1.495-2.41 2.963-2.75 1.41-.325 2.818.132 3.768 1.064l-2.27 17.138c.375-.04.757-.056 1.13-.055l2.214-16.806c.007-.018.006-.02.01-.04.31-1.49 1.465-2.76 3.067-3.13 1.785-.412 3.56.405 4.417 1.89-.015.027-.028.056-.038.084L23.943 31.4c.384.033.765.093 1.144.167l8.623-17.742c.063-.132.07-.282.02-.417C31.57 4.14 22.423-1.685 13.29.423zM31 41.447c0 1.2-.218 2.27-.653 3.207-.436.936-1.023 1.727-1.76 2.372-.738.644-1.59 1.135-2.56 1.47-.97.336-1.987.504-3.054.504-1.05 0-2.057-.168-3.026-.504-.97-.335-1.818-.826-2.547-1.47-.73-.645-1.31-1.436-1.747-2.372-.435-.937-.653-2.006-.653-3.207 0-1.184.218-2.24.653-3.167.436-.928 1.018-1.71 1.747-2.345.73-.636 1.578-1.118 2.547-1.445.97-.327 1.977-.49 3.026-.49 1.067 0 2.085.163 3.054.49.97.327 1.822.81 2.56 1.445.737.636 1.324 1.417 1.76 2.345.435.928.653 1.983.653 3.167zm-8.027-2.306c-.675 0-1.222.23-1.64.69-.417.46-.626 1-.626 1.617 0 .654.213 1.21.64 1.67.426.46.977.69 1.653.69s1.227-.23 1.653-.69c.427-.46.64-1.016.64-1.67 0-.618-.217-1.157-.653-1.617-.436-.46-.99-.69-1.667-.69z"/></g></svg>